<svg width="153" height="130" viewBox="0 0 153 130" fill="none" xmlns="http://www.w3.org/2000/svg">
<path d="M47.8293 28.1527C47.8474 28.4627 48.149 28.7605 48.4194 28.7095C48.7397 28.6491 48.8572 28.3945 48.8781 28.1091C48.8997 27.8133 48.6607 27.6246 48.332 27.6373C48.004 27.65 47.8114 27.8475 47.8293 28.1527Z" fill="#EF6725"/>
<path d="M48.2969 56.0011C47.9869 56.0192 47.6891 56.3209 47.7401 56.5913C47.8005 56.9115 48.0551 57.0291 48.3405 57.05C48.6363 57.0716 48.825 56.8326 48.8123 56.5038C48.7996 56.1759 48.6021 55.9833 48.2969 56.0011Z" fill="#EF6725"/>
<path d="M55.6802 5.67514C55.8888 5.45577 55.8723 5.18517 55.6364 4.95517C55.4112 4.73558 55.1082 4.7279 54.9102 4.93685C54.7102 5.14766 54.7313 5.44217 54.962 5.66307C55.201 5.89188 55.4697 5.89659 55.6802 5.67514Z" fill="#EF6725"/>
<path d="M44.297 22.4542C44.5398 22.2039 44.5462 21.9211 44.3145 21.6971C44.0789 21.4694 43.6571 21.4532 43.4546 21.6643C43.274 21.8525 43.2759 22.26 43.4584 22.4587C43.6819 22.7022 44.0585 22.7002 44.297 22.4542Z" fill="#EF6725"/>
<path d="M47.8293 22.1371C47.8474 22.4471 48.149 22.7449 48.4194 22.6939C48.7397 22.6334 48.8572 22.3789 48.8781 22.0935C48.8997 21.7976 48.6607 21.609 48.332 21.6217C48.004 21.6344 47.8114 21.8319 47.8293 22.1371Z" fill="#EF6725"/>
<path d="M41.0203 9.6022C40.8 9.8151 40.8062 10.0838 41.0369 10.3216C41.2636 10.5555 41.6215 10.5574 41.8338 10.3259C42.0071 10.137 42.009 9.74983 41.8373 9.57094C41.645 9.37043 41.2442 9.38579 41.0203 9.6022Z" fill="#EF6725"/>
<path d="M47.6008 11.5296C47.3581 11.7799 47.3516 12.0626 47.5834 12.2867C47.819 12.5144 48.2407 12.5306 48.4432 12.3195C48.6239 12.1313 48.6219 11.7239 48.4395 11.5251C48.2159 11.2816 47.8394 11.2836 47.6008 11.5296Z" fill="#EF6725"/>
<path d="M51.5781 38.2276C51.2681 38.2457 50.9704 38.5473 51.0214 38.8178C51.0818 39.1381 51.3364 39.2557 51.6218 39.2765C51.9176 39.2981 52.1063 39.0592 52.0935 38.7304C52.0808 38.4024 51.8834 38.2097 51.5781 38.2276Z" fill="#EF6725"/>
<path d="M47.6706 52.0786C47.89 52.2872 48.1606 52.2708 48.3906 52.0349C48.6102 51.8097 48.6179 51.5066 48.4089 51.3086C48.1981 51.1087 47.9036 51.1297 47.6827 51.3604C47.4539 51.5994 47.4492 51.8681 47.6706 52.0786Z" fill="#EF6725"/>
<path d="M43.036 37.4314C42.8022 37.6581 42.8002 38.016 43.0317 38.2284C43.2207 38.4018 43.6078 38.4035 43.7866 38.2319C43.9872 38.0395 43.9718 37.6387 43.7555 37.4148C43.5426 37.1946 43.2738 37.2007 43.036 37.4314Z" fill="#EF6725"/>
<path d="M51.0239 51.7041C51.0369 51.9829 51.3662 52.3113 51.6195 52.2629C51.9244 52.2046 52.076 51.9883 52.0793 51.6799C52.0825 51.3773 51.8758 51.1978 51.5462 51.2032C51.2388 51.2084 51.0108 51.4269 51.0239 51.7041Z" fill="#EF6725"/>
<path d="M51.8833 32.593C52.0919 32.3736 52.0754 32.103 51.8395 31.873C51.6143 31.6536 51.3113 31.6459 51.1133 31.8548C50.9134 32.0656 50.9344 32.3601 51.165 32.5811C51.404 32.81 51.6727 32.8145 51.8833 32.593Z" fill="#EF6725"/>
<path d="M47.7504 69.4776C47.7635 69.7564 48.0928 70.0848 48.346 70.0363C48.6509 69.978 48.8025 69.7617 48.8058 69.4534C48.8091 69.1508 48.6023 68.9712 48.2727 68.9767C47.9654 68.9818 47.7374 69.2005 47.7504 69.4776Z" fill="#EF6725"/>
<path d="M48.8123 81.1835C48.7996 80.8556 48.6021 80.663 48.2969 80.6808C47.9869 80.6989 47.6891 81.0006 47.7401 81.271C47.8005 81.5913 48.0551 81.7089 48.3405 81.7298C48.6363 81.7514 48.825 81.5124 48.8123 81.1835Z" fill="#EF6725"/>
<path d="M49.6227 13.1076C50.5786 14.048 51.536 14.9875 52.4628 15.9561C52.8171 16.3264 53.1979 16.4552 53.6988 16.451C54.7419 16.4424 55.7852 16.44 56.8285 16.4396C57.1918 10.9865 57.4355 6.75959 57.4355 5.23091C57.4355 2.20338 55.7383 0.926865 54.2534 0.389518C53.7584 0.210402 53.287 0.113331 52.9099 0.061011C52.6667 0.027228 52.4655 0.0125295 52.3198 0.00583873C52.3129 0.00550967 52.3046 0.00485187 52.2979 0.00452281C52.1548 -0.00150987 52.0719 0.000683846 52.0719 0.000683846H45.0981C45.0981 0.000683846 39.7344 -0.177774 39.7344 5.23102C39.7344 6.9239 40.0329 11.9225 40.4621 18.2346C41.1834 18.9694 41.9188 19.6909 42.6431 20.4232C42.9774 20.7611 43.2632 21.0297 43.8447 20.9034C44.5038 20.7601 44.9823 21.2284 45.1134 21.9258C45.2295 22.5425 44.8868 23.0999 44.2841 23.2751C43.5148 23.4988 42.5872 22.8068 42.7186 22.012C42.8057 21.4849 42.6177 21.1958 42.2927 20.8762C41.6996 20.2929 41.1091 19.7069 40.5226 19.1171C40.7967 23.1135 41.1182 27.5805 41.4469 32.0427C41.4613 32.237 41.4756 32.4312 41.4899 32.6256C41.5184 32.5953 41.5489 32.5667 41.5773 32.5362C41.9952 32.0893 42.4411 31.9376 43.0395 31.9455C45.2826 31.9751 47.5263 31.9597 49.7698 31.959C50.0684 31.9589 50.4026 32.0293 50.5194 31.6481C51.1484 30.9389 52.1047 30.9283 52.4988 31.6102C52.7871 32.1092 52.6977 32.8155 52.3051 33.1405C51.8433 33.5227 51.022 33.5163 50.6551 33.0031C50.3546 32.5829 50.0213 32.5639 49.5976 32.5657C47.4096 32.5749 45.2214 32.5804 43.0335 32.5622C42.5575 32.5582 42.1956 32.6806 41.8589 33.0324C41.7552 33.1407 41.6482 33.2457 41.5437 33.3533C41.5704 33.7137 41.5972 34.0741 41.6238 34.4336C41.6533 34.8311 41.6828 35.2278 41.7123 35.6235C41.7713 36.4148 41.8302 37.2018 41.8887 37.9818C41.9764 39.1517 42.0635 40.3058 42.149 41.4348C42.206 42.1875 42.2622 42.929 42.3176 43.6566C42.5044 46.1123 42.6806 48.4098 42.8376 50.4438C43.2386 55.6418 43.5131 59.1191 43.5131 59.1191C43.5131 59.1191 43.5364 59.8624 43.6273 60.7799C43.6403 60.9109 43.6546 61.0455 43.6705 61.1821C43.7098 61.5193 43.7592 61.8665 43.8188 62.2017C43.8642 62.457 43.9163 62.703 43.9755 62.9317C43.9937 63.0019 44.013 63.0679 44.0326 63.1343C44.1368 63.4873 44.2594 63.7867 44.4081 63.9731C44.4633 64.0425 44.5219 64.097 44.584 64.134C44.6461 64.1711 44.7117 64.191 44.781 64.1911V68.4357C44.0016 68.911 43.3186 69.5265 42.7663 70.2491C42.7478 70.2732 42.7298 70.2977 42.7117 70.3222C42.5496 70.539 42.3997 70.7655 42.2621 70.9999C42.2473 71.0251 42.2311 71.0494 42.2167 71.0747C42.0681 71.3349 41.9336 71.6041 41.8173 71.8831C41.8165 71.8848 41.816 71.8868 41.8153 71.8886C41.7086 72.1452 41.621 72.4117 41.5436 72.6823C41.5219 72.7587 41.5034 72.8365 41.4841 72.9139C41.4319 73.1226 41.3896 73.3352 41.3557 73.5507C41.3427 73.6344 41.3277 73.7175 41.3174 73.8021C41.2821 74.0922 41.2588 74.3861 41.2587 74.6859C41.2587 74.6866 41.2586 74.6875 41.2586 74.6883C41.2586 74.689 41.2587 74.6899 41.2587 74.6907C41.2587 74.9912 41.2823 75.286 41.3177 75.577C41.328 75.6616 41.343 75.7448 41.3561 75.8286C41.3902 76.0454 41.4328 76.2592 41.4856 76.4692C41.5048 76.546 41.523 76.6231 41.5446 76.6989C41.7072 77.2665 41.9333 77.8071 42.2207 78.3091C42.2373 78.3382 42.2557 78.3658 42.2727 78.3947C42.41 78.6271 42.5592 78.8517 42.7206 79.0668C42.7389 79.0913 42.757 79.1161 42.7755 79.1403C43.3316 79.8649 44.0187 80.4803 44.8034 80.9549C44.803 80.9547 44.8036 80.955 44.8034 80.9549L46.2076 88.3073H48.003C48.0032 88.0796 48.0023 87.8518 48.0022 87.6241C48.0021 86.1458 47.9949 84.6674 48.0064 83.1891C48.0099 82.7377 47.9524 82.3865 47.5527 82.0491C47.5038 82.0079 47.4709 81.9604 47.4312 81.9154C46.8845 81.2974 47.173 80.3669 48.0046 80.1158C48.4876 79.9699 48.945 80.1511 49.2712 80.6175C49.5679 81.0417 49.5612 81.3738 49.239 81.8198C49.196 81.8793 49.1474 81.9377 49.0947 81.9894C49.0696 82.0139 49.0455 82.0406 49.0167 82.0585C48.7066 82.251 48.6528 82.4979 48.6552 82.8693C48.6668 84.6819 48.6674 86.4947 48.6619 88.3074H50.9625L51.6907 84.4915L52.3654 80.9557C53.151 80.4806 53.8388 79.8645 54.3952 79.1391C54.413 79.1161 54.4301 79.0925 54.4475 79.0691C54.6103 78.8524 54.7607 78.626 54.899 78.3916C54.9149 78.3645 54.9324 78.3384 54.9479 78.3111C55.2362 77.8079 55.4629 77.266 55.6257 76.6969C55.6467 76.623 55.6644 76.5479 55.6833 76.4731C55.7367 76.2607 55.78 76.0443 55.8143 75.8249C55.8272 75.7432 55.8418 75.6622 55.8517 75.5796C55.8873 75.2869 55.9112 74.9909 55.9112 74.6887C55.9112 74.3874 55.8874 74.092 55.8521 73.8003C55.8421 73.7177 55.8274 73.6366 55.8147 73.5549C55.7805 73.3371 55.7379 73.1223 55.685 72.9114C55.666 72.8355 55.6479 72.7592 55.6267 72.6843C55.4647 72.1168 55.2395 71.5763 54.9528 71.0743C54.9387 71.0496 54.9229 71.0261 54.9087 71.0015C54.7707 70.7663 54.6203 70.5392 54.4576 70.3217C54.4398 70.2977 54.4221 70.2737 54.4039 70.2499C53.8514 69.5267 53.1687 68.9115 52.3888 68.4359V64.1914C52.5707 64.1914 52.7248 64.0455 52.8591 63.8175C52.9079 63.7346 52.9537 63.641 52.997 63.5362C53.1024 63.2798 53.1914 62.9644 53.2666 62.6209C53.5922 61.1327 53.6567 59.1197 53.6567 59.1197C53.6567 59.1197 54.1007 53.4958 54.6842 45.8609C54.7059 45.5782 54.7277 45.2925 54.7496 45.0045C54.7936 44.4282 54.8382 43.8417 54.8834 43.2465C54.9287 42.6511 54.9746 42.047 55.0208 41.4355C55.0777 40.6828 55.1354 39.919 55.1935 39.1468C55.4259 36.0578 55.6658 32.8343 55.8983 29.6512C55.9274 29.2531 55.9564 28.8555 55.9852 28.4588C55.5853 28.4583 55.1853 28.46 54.7854 28.4601C53.307 28.4603 51.8286 28.4675 50.3504 28.456C49.899 28.4525 49.5478 28.5099 49.2104 28.9096C48.6025 29.63 47.5464 29.3499 47.277 28.4577C47.1311 27.9748 47.3123 27.5174 47.7787 27.1912C48.2028 26.8945 48.535 26.9012 48.9809 27.2233C49.0689 27.2868 49.1641 27.3564 49.2196 27.4457C49.4121 27.7557 49.659 27.8096 50.0304 27.8072C52.0311 27.7944 54.0318 27.796 56.0326 27.8039C56.0454 27.6274 56.0583 27.4503 56.071 27.2742C56.1899 25.6293 56.3057 24.0085 56.4165 22.4344C55.8728 22.4336 55.3291 22.4361 54.7853 22.4361C53.3069 22.4362 51.8285 22.4435 50.3503 22.432C49.8989 22.4284 49.5477 22.4859 49.2103 22.8856C48.6024 23.606 47.5463 23.3259 47.2769 22.4337C47.131 21.9508 47.3122 21.4934 47.7786 21.1672C48.2027 20.8705 48.5349 20.8772 48.9808 21.1993C49.0688 21.2628 49.164 21.3324 49.2195 21.4216C49.412 21.7317 49.6589 21.7856 50.0303 21.7832C52.1742 21.7695 54.3182 21.7725 56.4622 21.7825C56.5765 20.1507 56.685 18.575 56.7852 17.0842C55.7584 17.0849 54.7315 17.0872 53.705 17.1007C53.0753 17.109 52.6059 16.9493 52.1662 16.4791C51.231 15.4789 50.2354 14.5354 49.2719 13.5613C48.9376 13.2233 48.6519 12.9547 48.0703 13.0811C47.4112 13.2243 46.9328 12.7561 46.8016 12.0587C46.6856 11.4419 47.0282 10.8845 47.6309 10.7094C48.4003 10.4857 49.3279 11.1777 49.1965 11.9725C49.1094 12.4995 49.2977 12.788 49.6227 13.1076ZM49.2391 57.146C49.1756 57.234 49.1061 57.3292 49.0167 57.3847C48.7066 57.5772 48.6528 57.8242 48.6552 58.1955C48.6747 61.2517 48.6665 64.3083 48.6394 67.3645C48.6376 67.5655 48.6376 67.7666 48.6358 67.9677C48.6327 68.28 48.7592 68.3849 48.9562 68.5463C49.5588 69.0403 49.6426 69.5576 49.2489 70.1164C48.8405 70.696 48.0796 70.7985 47.5239 70.3489C47.0493 69.965 46.9914 69.0873 47.5123 68.6791C47.9494 68.3366 48.0113 67.9513 48.0072 67.4676C48.0069 67.442 48.0073 67.4165 48.0072 67.3909C47.9951 65.9109 48.0024 64.4306 48.0023 62.9504C48.0022 61.4721 47.995 59.9936 48.0065 58.5154C48.01 58.0641 47.9525 57.7127 47.5528 57.3755C46.8324 56.7676 47.1126 55.7114 48.0047 55.442C48.4877 55.2962 48.9451 55.4774 49.2713 55.9436C49.568 56.3678 49.5613 56.7 49.2391 57.146ZM44.5414 39.3438C44.2376 39.035 43.963 38.8562 43.4621 38.939C42.7068 39.064 42.0493 38.1824 42.2619 37.4514C42.4284 36.8786 42.9581 36.553 43.5441 36.6633C44.2067 36.788 44.6517 37.2425 44.5156 37.8689C44.3954 38.4215 44.6507 38.6931 44.9718 39.0108C45.8975 39.9263 46.794 40.8722 47.7445 41.761C48.1913 42.1789 48.3431 42.6248 48.3352 43.2232C48.3056 45.4663 48.3211 47.71 48.3217 49.9535C48.3218 50.2521 48.2514 50.5863 48.6326 50.7031C49.3418 51.3321 49.3524 52.2883 48.6705 52.6825C48.1716 52.9709 47.4652 52.8814 47.1402 52.4888C46.7581 52.0269 46.7644 51.2057 47.2778 50.8388C47.698 50.5385 47.7169 50.205 47.7152 49.7814C47.706 47.5934 47.7005 45.4052 47.7187 43.2173C47.7226 42.7413 47.6002 42.3793 47.2484 42.0427C46.3279 41.162 45.4349 40.2521 44.5414 39.3438ZM52.5865 74.5096C52.7243 74.6538 52.8104 74.8303 52.8512 75.0155C52.8885 75.1852 52.8838 75.361 52.8398 75.5294C52.7945 75.7029 52.7105 75.8677 52.5792 76.0035C52.5225 76.0621 52.4579 76.1123 52.3889 76.1561C51.9392 76.4415 51.273 76.4069 50.9792 75.9614C50.7796 75.6587 50.5567 75.5616 50.2935 75.5304C50.1738 75.5303 50.054 75.5305 49.9342 75.5305C49.0273 75.5308 48.1207 75.5344 47.2138 75.5316C46.7773 75.5303 46.4482 75.5728 46.155 76.0033C45.8478 76.4545 45.2326 76.4847 44.7809 76.1958C44.7023 76.1456 44.6273 76.0887 44.5613 76.0195C44.4235 75.8753 44.3373 75.6988 44.2966 75.5137C44.2593 75.344 44.264 75.1681 44.308 74.9996C44.3533 74.8261 44.4373 74.6613 44.5686 74.5255C44.6309 74.461 44.7037 74.4081 44.7808 74.3616C45.23 74.0904 45.8793 74.1288 46.1687 74.5676C46.3684 74.8704 46.5911 74.9674 46.8541 74.9986C47.8808 74.9998 48.9073 74.9942 49.934 74.9974C50.3705 74.9987 50.6996 74.9562 50.9928 74.5257C51.3048 74.0673 51.9353 74.0417 52.3886 74.3453C52.4593 74.3926 52.5264 74.4466 52.5865 74.5096ZM51.9122 50.1909C51.9091 50.5033 52.0356 50.6081 52.2326 50.7695C52.8352 51.2635 52.919 51.7807 52.5253 52.3395C52.117 52.9191 51.3561 53.0216 50.8003 52.572C50.3258 52.1881 50.2678 51.3104 50.7888 50.9022C51.2258 50.5597 51.2877 50.1744 51.2837 49.6907C51.2707 48.1851 51.279 46.6793 51.2787 45.1735C51.2786 43.6952 51.2714 42.2169 51.283 40.7385C51.2865 40.2872 51.2291 39.936 50.8294 39.5987C50.1089 38.9908 50.3891 37.9346 51.2813 37.6653C51.7642 37.5194 52.2216 37.7006 52.5478 38.167C52.8445 38.5911 52.8378 38.9232 52.5157 39.3692C52.4522 39.4572 52.3826 39.5524 52.2932 39.6079C51.9831 39.8004 51.9294 40.0473 51.9317 40.4187C51.9525 43.676 51.9439 46.9337 51.9122 50.1909ZM46.8323 5.64168C46.3563 5.63773 45.9943 5.76014 45.6577 6.11201C44.777 7.03249 43.8673 7.92533 42.9589 8.81882C42.6501 9.12265 42.4713 9.3973 42.5542 9.89813C42.6791 10.6534 41.7976 11.311 41.0665 11.0984C40.4937 10.9319 40.1682 10.4021 40.2784 9.81619C40.4031 9.15358 40.8577 8.70859 41.4841 8.84471C42.0367 8.96482 42.3082 8.70958 42.6259 8.38842C43.5414 7.46279 44.4874 6.56622 45.3761 5.6158C45.794 5.16894 46.2399 5.01724 46.8384 5.02514C49.0814 5.05476 51.3251 5.03929 53.5686 5.03863C53.8672 5.03852 54.2014 5.10894 54.3182 4.72779C54.9473 4.01856 55.9034 4.00792 56.2976 4.68983C56.5861 5.18879 56.4966 5.89516 56.1039 6.22016C55.6421 6.6023 54.8208 6.59594 54.4539 6.08262C54.1536 5.66241 53.8201 5.64344 53.3965 5.64519C51.2085 5.65441 49.0202 5.65989 46.8323 5.64168Z" fill="#EF6725"/>
<path d="M45.3605 74.7581C45.1909 74.7654 45.038 74.8671 44.9384 75.0003C44.8667 75.0963 44.8187 75.2066 44.8297 75.3189C44.836 75.3839 44.8628 75.4511 44.9004 75.5147C45.0053 75.6919 45.2048 75.8342 45.361 75.7725C45.5007 75.7173 45.6174 75.6096 45.7157 75.5149C45.7643 75.4681 45.8097 75.4237 45.8486 75.3919C45.8465 75.2289 45.8027 75.103 45.7427 75C45.6516 74.8434 45.5143 74.7516 45.3605 74.7581Z" fill="#EF6725"/>
<path d="M51.7766 74.7529C51.6369 74.8081 51.5202 74.9158 51.4219 75.0106C51.3733 75.0573 51.3279 75.1017 51.2891 75.1335C51.2911 75.2965 51.3349 75.4224 51.3949 75.5254C51.4861 75.682 51.6233 75.7739 51.7772 75.7673C51.9467 75.76 52.0996 75.6584 52.1992 75.5251C52.271 75.4291 52.3189 75.3188 52.3079 75.2066C52.3016 75.1415 52.2748 75.0743 52.2372 75.0107C52.1323 74.8335 51.9328 74.6913 51.7766 74.7529Z" fill="#EF6725"/>
<path d="M75.4152 28.1527C75.4333 28.4627 75.7349 28.7605 76.0053 28.7095C76.3256 28.6491 76.4432 28.3945 76.464 28.1091C76.4856 27.8133 76.2466 27.6246 75.9179 27.6373C75.5899 27.65 75.3973 27.8475 75.4152 28.1527Z" fill="#283B8B"/>
<path d="M75.8828 56.0011C75.5728 56.0192 75.275 56.3209 75.326 56.5913C75.3865 56.9115 75.6411 57.0291 75.9265 57.05C76.2223 57.0716 76.4109 56.8326 76.3982 56.5038C76.3855 56.1759 76.1881 55.9833 75.8828 56.0011Z" fill="#283B8B"/>
<path d="M83.2661 5.67514C83.4747 5.45577 83.4583 5.18517 83.2224 4.95517C82.9972 4.73558 82.6941 4.7279 82.4961 4.93685C82.2962 5.14766 82.3172 5.44217 82.5479 5.66307C82.7869 5.89188 83.0556 5.89659 83.2661 5.67514Z" fill="#283B8B"/>
<path d="M71.8908 22.4542C72.1335 22.2039 72.14 21.9211 71.9082 21.6971C71.6726 21.4694 71.2509 21.4532 71.0484 21.6643C70.8677 21.8525 70.8696 22.26 71.0521 22.4587C71.2757 22.7022 71.6522 22.7002 71.8908 22.4542Z" fill="#283B8B"/>
<path d="M75.4152 22.1371C75.4333 22.4471 75.7349 22.7449 76.0053 22.6939C76.3256 22.6334 76.4432 22.3789 76.464 22.0935C76.4856 21.7976 76.2466 21.609 75.9179 21.6217C75.5899 21.6344 75.3973 21.8319 75.4152 22.1371Z" fill="#283B8B"/>
<path d="M68.6062 9.6022C68.386 9.8151 68.3921 10.0838 68.6228 10.3216C68.8495 10.5555 69.2074 10.5574 69.4198 10.3259C69.5931 10.137 69.5949 9.74983 69.4233 9.57094C69.2309 9.37043 68.8301 9.38579 68.6062 9.6022Z" fill="#283B8B"/>
<path d="M75.1868 11.5296C74.944 11.7799 74.9376 12.0626 75.1693 12.2867C75.4049 12.5144 75.8267 12.5306 76.0292 12.3195C76.2098 12.1313 76.2078 11.7239 76.0254 11.5251C75.8019 11.2816 75.4253 11.2836 75.1868 11.5296Z" fill="#283B8B"/>
<path d="M79.1562 38.2276C78.8463 38.2457 78.5485 38.5473 78.5995 38.8178C78.6599 39.1381 78.9145 39.2557 79.1999 39.2765C79.4957 39.2981 79.6844 39.0592 79.6717 38.7304C79.6589 38.4024 79.4615 38.2097 79.1562 38.2276Z" fill="#283B8B"/>
<path d="M75.2644 52.0786C75.4837 52.2872 75.7543 52.2708 75.9844 52.0349C76.2039 51.8097 76.2116 51.5066 76.0027 51.3086C75.7919 51.1087 75.4973 51.1297 75.2764 51.3604C75.0476 51.5994 75.0429 51.8681 75.2644 52.0786Z" fill="#283B8B"/>
<path d="M70.6219 37.4314C70.3882 37.6581 70.3862 38.016 70.6176 38.2284C70.8066 38.4018 71.1937 38.4035 71.3726 38.2319C71.5731 38.0395 71.5577 37.6387 71.3414 37.4148C71.1285 37.1946 70.8597 37.2007 70.6219 37.4314Z" fill="#283B8B"/>
<path d="M78.6098 51.7041C78.6229 51.9829 78.9521 52.3113 79.2054 52.2629C79.5103 52.2046 79.6619 51.9883 79.6652 51.6799C79.6685 51.3773 79.4617 51.1978 79.1321 51.2032C78.8248 51.2084 78.5967 51.4269 78.6098 51.7041Z" fill="#283B8B"/>
<path d="M79.4692 32.593C79.6778 32.3736 79.6614 32.103 79.4254 31.873C79.2003 31.6536 78.8972 31.6459 78.6992 31.8548C78.4994 32.0656 78.5203 32.3601 78.751 32.5811C78.99 32.81 79.2586 32.8145 79.4692 32.593Z" fill="#283B8B"/>
<path d="M75.3364 69.4776C75.3494 69.7564 75.6787 70.0848 75.932 70.0363C76.2369 69.978 76.3885 69.7617 76.3918 69.4534C76.395 69.1508 76.1883 68.9712 75.8587 68.9767C75.5513 68.9818 75.3233 69.2005 75.3364 69.4776Z" fill="#283B8B"/>
<path d="M76.3982 81.1835C76.3855 80.8556 76.1881 80.663 75.8828 80.6808C75.5728 80.6989 75.275 81.0006 75.326 81.271C75.3865 81.5913 75.6411 81.7089 75.9265 81.7298C76.2223 81.7514 76.4109 81.5124 76.3982 81.1835Z" fill="#283B8B"/>
<path d="M77.193 13.1076C78.1489 14.048 79.1063 14.9875 80.0331 15.9561C80.3874 16.3264 80.7682 16.4552 81.2691 16.451C82.3123 16.4424 83.3555 16.44 84.3988 16.4396C84.7621 10.9865 85.0058 6.75959 85.0058 5.23091C85.0058 2.20338 83.3086 0.926865 81.8237 0.389518C81.3287 0.210402 80.8573 0.113331 80.4802 0.061011C80.237 0.027228 80.0358 0.0125295 79.8901 0.00583873C79.8832 0.00550967 79.8749 0.00485187 79.8682 0.00452281C79.7251 -0.00150987 79.6422 0.000683846 79.6422 0.000683846H72.6684C72.6684 0.000683846 67.3047 -0.177774 67.3047 5.23102C67.3047 6.9239 67.6033 11.9225 68.0325 18.2346C68.7537 18.9694 69.4891 19.6909 70.2134 20.4232C70.5478 20.7611 70.8335 21.0297 71.415 20.9034C72.0741 20.7601 72.5526 21.2284 72.6838 21.9258C72.7998 22.5425 72.4572 23.0999 71.8544 23.2751C71.0851 23.4988 70.1575 22.8068 70.2889 22.012C70.376 21.4849 70.188 21.1958 69.863 20.8762C69.2699 20.2929 68.6794 19.7069 68.0929 19.1171C68.367 23.1135 68.6885 27.5805 69.0172 32.0427C69.0316 32.237 69.0459 32.4312 69.0602 32.6256C69.0887 32.5953 69.1192 32.5667 69.1476 32.5362C69.5655 32.0893 70.0114 31.9376 70.6098 31.9455C72.8529 31.9751 75.0966 31.9597 77.3401 31.959C77.6387 31.9589 77.9729 32.0293 78.0897 31.6481C78.7188 30.9389 79.675 30.9283 80.0691 31.6102C80.3574 32.1092 80.2681 32.8155 79.8754 33.1405C79.4136 33.5227 78.5923 33.5163 78.2254 33.0031C77.925 32.5829 77.5916 32.5639 77.1679 32.5657C74.9799 32.5749 72.7917 32.5804 70.6038 32.5622C70.1278 32.5582 69.7659 32.6806 69.4292 33.0324C69.3255 33.1407 69.2185 33.2457 69.1141 33.3533C69.1407 33.7137 69.1675 34.0741 69.1941 34.4336C69.2236 34.8311 69.2531 35.2278 69.2826 35.6235C69.3417 36.4148 69.4006 37.2018 69.459 37.9818C69.5468 39.1517 69.6339 40.3058 69.7193 41.4348C69.7763 42.1875 69.8325 42.929 69.8879 43.6566C70.0747 46.1123 70.2509 48.4098 70.4079 50.4438C70.8089 55.6418 71.0835 59.1191 71.0835 59.1191C71.0835 59.1191 71.1067 59.8624 71.1976 60.7799C71.2106 60.9109 71.2249 61.0455 71.2409 61.1821C71.2801 61.5193 71.3295 61.8665 71.3891 62.2017C71.4346 62.457 71.4867 62.703 71.5458 62.9317C71.564 63.0019 71.5833 63.0679 71.6029 63.1343C71.7071 63.4873 71.8298 63.7867 71.9784 63.9731C72.0337 64.0425 72.0922 64.097 72.1543 64.134C72.2164 64.1711 72.282 64.191 72.3513 64.1911V68.4357C71.5719 68.911 70.8889 69.5265 70.3366 70.2491C70.3181 70.2732 70.3001 70.2977 70.282 70.3222C70.1199 70.539 69.97 70.7655 69.8324 70.9999C69.8176 71.0251 69.8015 71.0494 69.787 71.0747C69.6385 71.3349 69.5039 71.6041 69.3876 71.8831C69.3868 71.8848 69.3863 71.8868 69.3856 71.8886C69.2789 72.1452 69.1913 72.4117 69.1139 72.6823C69.0922 72.7587 69.0737 72.8365 69.0544 72.9139C69.0022 73.1226 68.9599 73.3352 68.9261 73.5507C68.913 73.6344 68.898 73.7175 68.8877 73.8021C68.8525 74.0922 68.8291 74.3861 68.829 74.6859C68.829 74.6866 68.8289 74.6875 68.8289 74.6883C68.8289 74.689 68.829 74.6899 68.829 74.6907C68.829 74.9912 68.8526 75.286 68.888 75.577C68.8983 75.6616 68.9133 75.7448 68.9264 75.8286C68.9605 76.0454 69.0032 76.2592 69.0559 76.4692C69.0751 76.546 69.0933 76.6231 69.1149 76.6989C69.2775 77.2665 69.5037 77.8071 69.791 78.3091C69.8076 78.3382 69.826 78.3658 69.843 78.3947C69.9803 78.6271 70.1295 78.8517 70.2909 79.0668C70.3092 79.0913 70.3273 79.1161 70.3458 79.1403C70.9019 79.8649 71.589 80.4803 72.3737 80.9549C72.3734 80.9547 72.3739 80.955 72.3737 80.9549L73.7779 88.3073H75.5733C75.5735 88.0796 75.5726 87.8518 75.5725 87.6241C75.5724 86.1458 75.5652 84.6674 75.5767 83.1891C75.5802 82.7377 75.5227 82.3865 75.123 82.0491C75.0741 82.0079 75.0412 81.9604 75.0015 81.9154C74.4548 81.2974 74.7433 80.3669 75.575 80.1158C76.0579 79.9699 76.5153 80.1511 76.8415 80.6175C77.1382 81.0417 77.1315 81.3738 76.8093 81.8198C76.7664 81.8793 76.7178 81.9377 76.665 81.9894C76.6399 82.0139 76.6159 82.0406 76.587 82.0585C76.2769 82.251 76.2231 82.4979 76.2255 82.8693C76.2371 84.6819 76.2377 86.4947 76.2322 88.3074H78.5328L79.261 84.4915L79.9357 80.9557C80.7213 80.4806 81.4091 79.8645 81.9655 79.1391C81.9833 79.1161 82.0004 79.0925 82.0179 79.0691C82.1806 78.8524 82.331 78.626 82.4693 78.3916C82.4852 78.3645 82.5027 78.3384 82.5182 78.3111C82.8065 77.8079 83.0332 77.266 83.196 76.6969C83.217 76.623 83.2347 76.5479 83.2536 76.4731C83.307 76.2607 83.3503 76.0443 83.3846 75.8249C83.3975 75.7432 83.4121 75.6622 83.4221 75.5796C83.4576 75.2869 83.4815 74.9909 83.4815 74.6887C83.4815 74.3874 83.4577 74.092 83.4224 73.8003C83.4124 73.7177 83.3977 73.6366 83.385 73.5549C83.3509 73.3371 83.3082 73.1223 83.2553 72.9114C83.2364 72.8355 83.2183 72.7592 83.197 72.6843C83.035 72.1168 82.8098 71.5763 82.5231 71.0743C82.509 71.0496 82.4932 71.0261 82.479 71.0015C82.341 70.7663 82.1906 70.5392 82.028 70.3217C82.0101 70.2977 81.9924 70.2737 81.9742 70.2499C81.4217 69.5267 80.739 68.9115 79.9591 68.4359V64.1914C80.141 64.1914 80.2951 64.0455 80.4294 63.8175C80.4782 63.7346 80.5241 63.641 80.5673 63.5362C80.6727 63.2798 80.7617 62.9644 80.8369 62.6209C81.1625 61.1327 81.227 59.1197 81.227 59.1197C81.227 59.1197 81.671 53.4958 82.2546 45.8609C82.2762 45.5782 82.298 45.2925 82.3199 45.0045C82.3639 44.4282 82.4086 43.8417 82.4537 43.2465C82.499 42.6511 82.5449 42.047 82.5911 41.4355C82.648 40.6828 82.7057 39.919 82.7638 39.1468C82.9963 36.0578 83.2361 32.8343 83.4687 29.6512C83.4977 29.2531 83.5267 28.8555 83.5555 28.4588C83.1556 28.4583 82.7556 28.46 82.3557 28.4601C80.8774 28.4603 79.3989 28.4675 77.9207 28.456C77.4693 28.4525 77.1181 28.5099 76.7807 28.9096C76.1728 29.63 75.1167 29.3499 74.8473 28.4577C74.7014 27.9748 74.8826 27.5174 75.349 27.1912C75.7732 26.8945 76.1053 26.9012 76.5513 27.2233C76.6392 27.2868 76.7344 27.3564 76.7899 27.4457C76.9824 27.7557 77.2293 27.8096 77.6007 27.8072C79.6014 27.7944 81.6022 27.796 83.6029 27.8039C83.6158 27.6274 83.6286 27.4503 83.6413 27.2742C83.7602 25.6293 83.876 24.0085 83.9868 22.4344C83.4431 22.4336 82.8994 22.4361 82.3556 22.4361C80.8772 22.4362 79.3988 22.4435 77.9206 22.432C77.4692 22.4284 77.118 22.4859 76.7806 22.8856C76.1727 23.606 75.1166 23.3259 74.8472 22.4337C74.7013 21.9508 74.8825 21.4934 75.3489 21.1672C75.773 20.8705 76.1052 20.8772 76.5511 21.1993C76.6391 21.2628 76.7343 21.3324 76.7898 21.4216C76.9823 21.7317 77.2292 21.7856 77.6006 21.7832C79.7445 21.7695 81.8885 21.7725 84.0326 21.7825C84.1468 20.1507 84.2553 18.575 84.3555 17.0842C83.3287 17.0849 82.3018 17.0872 81.2753 17.1007C80.6456 17.109 80.1762 16.9493 79.7365 16.4791C78.8013 15.4789 77.8057 14.5354 76.8423 13.5613C76.5079 13.2233 76.2222 12.9547 75.6407 13.0811C74.9816 13.2243 74.5031 12.7561 74.3719 12.0587C74.2559 11.4419 74.5985 10.8845 75.2013 10.7094C75.9706 10.4857 76.8982 11.1777 76.7668 11.9725C76.6797 12.4995 76.868 12.788 77.193 13.1076ZM76.8096 57.146C76.7461 57.234 76.6765 57.3292 76.5871 57.3847C76.277 57.5772 76.2232 57.8242 76.2256 58.1955C76.2451 61.2517 76.2369 64.3083 76.2098 67.3645C76.2081 67.5655 76.2081 67.7666 76.2062 67.9677C76.2031 68.28 76.3296 68.3849 76.5266 68.5463C77.1292 69.0403 77.213 69.5576 76.8193 70.1164C76.411 70.696 75.65 70.7985 75.0943 70.3489C74.6197 69.965 74.5618 69.0873 75.0827 68.6791C75.5198 68.3366 75.5818 67.9513 75.5776 67.4676C75.5774 67.442 75.5777 67.4165 75.5776 67.3909C75.5655 65.9109 75.5729 64.4306 75.5728 62.9504C75.5726 61.4721 75.5654 59.9936 75.5769 58.5154C75.5804 58.0641 75.523 57.7127 75.1233 57.3755C74.4029 56.7676 74.683 55.7114 75.5752 55.442C76.0581 55.2962 76.5155 55.4774 76.8417 55.9436C77.1384 56.3678 77.1317 56.7 76.8096 57.146ZM72.1118 39.3438C71.8079 39.035 71.5333 38.8562 71.0324 38.939C70.2772 39.064 69.6196 38.1824 69.8322 37.4514C69.9987 36.8786 70.5284 36.553 71.1144 36.6633C71.777 36.788 72.222 37.2425 72.0859 37.8689C71.9658 38.4215 72.221 38.6931 72.5422 39.0108C73.4678 39.9263 74.3644 40.8722 75.3148 41.761C75.7616 42.1789 75.9134 42.6248 75.9055 43.2232C75.8759 45.4663 75.8914 47.71 75.8921 49.9535C75.8922 50.2521 75.8217 50.5863 76.2029 50.7031C76.9121 51.3321 76.9228 52.2883 76.2409 52.6825C75.7419 52.9709 75.0355 52.8814 74.7105 52.4888C74.3284 52.0269 74.3347 51.2057 74.8481 50.8388C75.2683 50.5385 75.2872 50.205 75.2855 49.7814C75.2763 47.5934 75.2708 45.4052 75.289 43.2173C75.293 42.7413 75.1705 42.3793 74.8187 42.0427C73.8982 41.162 73.0052 40.2521 72.1118 39.3438ZM80.1569 74.5096C80.2947 74.6538 80.3808 74.8303 80.4216 75.0155C80.4589 75.1852 80.4542 75.361 80.4102 75.5294C80.3649 75.7029 80.2809 75.8677 80.1496 76.0035C80.0929 76.0621 80.0283 76.1123 79.9593 76.1561C79.5096 76.4415 78.8435 76.4069 78.5496 75.9614C78.35 75.6587 78.1271 75.5616 77.864 75.5304C77.7442 75.5303 77.6244 75.5305 77.5046 75.5305C76.5978 75.5308 75.6911 75.5344 74.7842 75.5316C74.3477 75.5303 74.0186 75.5728 73.7254 76.0033C73.4182 76.4545 72.803 76.4847 72.3513 76.1958C72.2728 76.1456 72.1977 76.0887 72.1317 76.0195C71.994 75.8753 71.9077 75.6988 71.867 75.5137C71.8298 75.344 71.8345 75.1681 71.8785 74.9996C71.9238 74.8261 72.0078 74.6613 72.1391 74.5255C72.2014 74.461 72.2741 74.4081 72.3512 74.3616C72.8005 74.0904 73.4497 74.1288 73.7392 74.5676C73.9388 74.8704 74.1615 74.9674 74.4246 74.9986C75.4512 74.9998 76.4778 74.9942 77.5044 74.9974C77.941 74.9987 78.27 74.9562 78.5632 74.5257C78.8753 74.0673 79.5057 74.0417 79.9591 74.3453C80.0297 74.3926 80.0968 74.4466 80.1569 74.5096ZM79.4825 50.1909C79.4794 50.5033 79.6059 50.6081 79.8029 50.7695C80.4055 51.2635 80.4893 51.7807 80.0956 52.3395C79.6873 52.9191 78.9264 53.0216 78.3706 52.572C77.8961 52.1881 77.8381 51.3104 78.3591 50.9022C78.7961 50.5597 78.8581 50.1744 78.854 49.6907C78.841 48.1851 78.8493 46.6793 78.8491 45.1735C78.8489 43.6952 78.8417 42.2169 78.8533 40.7385C78.8568 40.2872 78.7994 39.936 78.3997 39.5987C77.6793 38.9908 77.9594 37.9346 78.8516 37.6653C79.3345 37.5194 79.7919 37.7006 80.1181 38.167C80.4148 38.5911 80.4081 38.9232 80.086 39.3692C80.0225 39.4572 79.9529 39.5524 79.8635 39.6079C79.5535 39.8004 79.4997 40.0473 79.502 40.4187C79.5228 43.676 79.5142 46.9337 79.4825 50.1909ZM74.4026 5.64168C73.9266 5.63773 73.5646 5.76014 73.228 6.11201C72.3474 7.03249 71.4376 7.92533 70.5292 8.81882C70.2204 9.12265 70.0417 9.3973 70.1245 9.89813C70.2494 10.6534 69.3679 11.311 68.6368 11.0984C68.064 10.9319 67.7385 10.4021 67.8487 9.81619C67.9734 9.15358 68.428 8.70859 69.0544 8.84471C69.607 8.96482 69.8786 8.70958 70.1962 8.38842C71.1118 7.46279 72.0577 6.56622 72.9465 5.6158C73.3644 5.16894 73.8102 5.01724 74.4087 5.02514C76.6517 5.05476 78.8955 5.03929 81.139 5.03863C81.4375 5.03852 81.7717 5.10894 81.8885 4.72779C82.5176 4.01856 83.4737 4.00792 83.8679 4.68983C84.1564 5.18879 84.0669 5.89516 83.6742 6.22016C83.2124 6.6023 82.3911 6.59594 82.0242 6.08262C81.7239 5.66241 81.3905 5.64344 80.9669 5.64519C78.7789 5.65441 76.5905 5.65989 74.4026 5.64168Z" fill="#283B8B"/>
<path d="M72.9464 74.7581C72.7768 74.7654 72.6239 74.8671 72.5243 75.0003C72.4526 75.0963 72.4047 75.2066 72.4156 75.3189C72.422 75.3839 72.4487 75.4511 72.4864 75.5147C72.5912 75.6919 72.7907 75.8342 72.9469 75.7725C73.0867 75.7173 73.2034 75.6096 73.3017 75.5149C73.3503 75.4681 73.3957 75.4237 73.4345 75.3919C73.4324 75.2289 73.3886 75.103 73.3286 75C73.2375 74.8434 73.1003 74.7516 72.9464 74.7581Z" fill="#283B8B"/>
<path d="M79.3626 74.7529C79.2228 74.8081 79.1061 74.9158 79.0078 75.0106C78.9592 75.0573 78.9138 75.1017 78.875 75.1335C78.8771 75.2965 78.9208 75.4224 78.9808 75.5254C79.072 75.682 79.2092 75.7739 79.3631 75.7673C79.5327 75.76 79.6856 75.6584 79.7852 75.5251C79.8569 75.4291 79.9048 75.3188 79.8939 75.2066C79.8875 75.1415 79.8607 75.0743 79.8231 75.0107C79.7183 74.8335 79.5187 74.6913 79.3626 74.7529Z" fill="#283B8B"/>
<path d="M103.009 28.1527C103.027 28.4627 103.329 28.7605 103.599 28.7095C103.919 28.6491 104.037 28.3945 104.058 28.1091C104.079 27.8133 103.84 27.6246 103.512 27.6373C103.184 27.65 102.991 27.8475 103.009 28.1527Z" fill="#FBBD17"/>
<path d="M103.469 56.0011C103.159 56.0192 102.861 56.3209 102.912 56.5913C102.972 56.9115 103.227 57.0291 103.512 57.05C103.808 57.0716 103.997 56.8326 103.984 56.5038C103.971 56.1759 103.774 55.9833 103.469 56.0011Z" fill="#FBBD17"/>
<path d="M110.852 5.67514C111.061 5.45577 111.044 5.18517 110.808 4.95517C110.583 4.73558 110.28 4.7279 110.082 4.93685C109.882 5.14766 109.903 5.44217 110.134 5.66307C110.373 5.89188 110.642 5.89659 110.852 5.67514Z" fill="#FBBD17"/>
<path d="M99.4689 22.4542C99.7116 22.2039 99.7181 21.9211 99.4863 21.6971C99.2507 21.4694 98.829 21.4532 98.6265 21.6643C98.4459 21.8525 98.4477 22.26 98.6302 22.4587C98.8538 22.7022 99.2303 22.7002 99.4689 22.4542Z" fill="#FBBD17"/>
<path d="M103.009 22.1371C103.027 22.4471 103.329 22.7449 103.599 22.6939C103.919 22.6334 104.037 22.3789 104.058 22.0935C104.079 21.7976 103.84 21.609 103.512 21.6217C103.184 21.6344 102.991 21.8319 103.009 22.1371Z" fill="#FBBD17"/>
<path d="M96.1922 9.6022C95.9719 9.8151 95.9781 10.0838 96.2087 10.3216C96.4355 10.5555 96.7934 10.5574 97.0057 10.3259C97.179 10.137 97.1809 9.74983 97.0092 9.57094C96.8168 9.37043 96.416 9.38579 96.1922 9.6022Z" fill="#FBBD17"/>
<path d="M102.781 11.5296C102.538 11.7799 102.531 12.0626 102.763 12.2867C102.999 12.5144 103.42 12.5306 103.623 12.3195C103.804 12.1313 103.802 11.7239 103.619 11.5251C103.396 11.2816 103.019 11.2836 102.781 11.5296Z" fill="#FBBD17"/>
<path d="M106.742 38.2276C106.432 38.2457 106.134 38.5473 106.185 38.8178C106.246 39.1381 106.5 39.2557 106.786 39.2765C107.082 39.2981 107.27 39.0592 107.258 38.7304C107.245 38.4024 107.047 38.2097 106.742 38.2276Z" fill="#FBBD17"/>
<path d="M102.85 52.0786C103.07 52.2872 103.34 52.2708 103.57 52.0349C103.79 51.8097 103.798 51.5066 103.589 51.3086C103.378 51.1087 103.083 51.1297 102.862 51.3604C102.634 51.5994 102.629 51.8681 102.85 52.0786Z" fill="#FBBD17"/>
<path d="M98.2078 37.4314C97.9741 37.6581 97.9721 38.016 98.2036 38.2284C98.3925 38.4018 98.7796 38.4035 98.9585 38.2319C99.159 38.0395 99.1437 37.6387 98.9274 37.4148C98.7145 37.1946 98.4456 37.2007 98.2078 37.4314Z" fill="#FBBD17"/>
<path d="M106.196 51.7041C106.209 51.9829 106.538 52.3113 106.791 52.2629C107.096 52.2046 107.248 51.9883 107.251 51.6799C107.254 51.3773 107.048 51.1978 106.718 51.2032C106.411 51.2084 106.183 51.4269 106.196 51.7041Z" fill="#FBBD17"/>
<path d="M107.055 32.593C107.264 32.3736 107.247 32.103 107.011 31.873C106.786 31.6536 106.483 31.6459 106.285 31.8548C106.085 32.0656 106.106 32.3601 106.337 32.5811C106.576 32.81 106.845 32.8145 107.055 32.593Z" fill="#FBBD17"/>
<path d="M102.922 69.4776C102.935 69.7564 103.265 70.0848 103.518 70.0363C103.823 69.978 103.974 69.7617 103.978 69.4534C103.981 69.1508 103.774 68.9712 103.445 68.9767C103.137 68.9818 102.909 69.2005 102.922 69.4776Z" fill="#FBBD17"/>
<path d="M103.984 81.1835C103.971 80.8556 103.774 80.663 103.469 80.6808C103.159 80.6989 102.861 81.0006 102.912 81.271C102.972 81.5913 103.227 81.7089 103.512 81.7298C103.808 81.7514 103.997 81.5124 103.984 81.1835Z" fill="#FBBD17"/>
<path d="M104.795 13.1076C105.75 14.048 106.708 14.9875 107.635 15.9561C107.989 16.3264 108.37 16.4552 108.871 16.451C109.914 16.4424 110.957 16.44 112 16.4396C112.364 10.9865 112.607 6.75959 112.607 5.23091C112.607 2.20338 110.91 0.926865 109.425 0.389518C108.93 0.210402 108.459 0.113331 108.082 0.061011C107.839 0.027228 107.637 0.0125295 107.492 0.00583873C107.485 0.00550967 107.476 0.00485187 107.47 0.00452281C107.327 -0.00150987 107.244 0.000683846 107.244 0.000683846H100.27C100.27 0.000683846 94.9062 -0.177774 94.9062 5.23102C94.9062 6.9239 95.2048 11.9225 95.634 18.2346C96.3553 18.9694 97.0906 19.6909 97.815 20.4232C98.1493 20.7611 98.435 21.0297 99.0166 20.9034C99.6757 20.7601 100.154 21.2284 100.285 21.9258C100.401 22.5425 100.059 23.0999 99.456 23.2751C98.6867 23.4988 97.7591 22.8068 97.8905 22.012C97.9775 21.4849 97.7895 21.1958 97.4645 20.8762C96.8715 20.2929 96.2809 19.7069 95.6944 19.1171C95.9685 23.1135 96.29 27.5805 96.6188 32.0427C96.6331 32.237 96.6475 32.4312 96.6618 32.6256C96.6903 32.5953 96.7208 32.5667 96.7492 32.5362C97.1671 32.0893 97.6129 31.9376 98.2114 31.9455C100.454 31.9751 102.698 31.9597 104.942 31.959C105.24 31.9589 105.574 32.0293 105.691 31.6481C106.32 30.9389 107.277 30.9283 107.671 31.6102C107.959 32.1092 107.87 32.8155 107.477 33.1405C107.015 33.5227 106.194 33.5163 105.827 33.0031C105.527 32.5829 105.193 32.5639 104.769 32.5657C102.581 32.5749 100.393 32.5804 98.2054 32.5622C97.7293 32.5582 97.3675 32.6806 97.0307 33.0324C96.9271 33.1407 96.82 33.2457 96.7156 33.3533C96.7423 33.7137 96.769 34.0741 96.7957 34.4336C96.8252 34.8311 96.8547 35.2278 96.8842 35.6235C96.9432 36.4148 97.0021 37.2018 97.0606 37.9818C97.1483 39.1517 97.2354 40.3058 97.3209 41.4348C97.3779 42.1875 97.4341 42.929 97.4894 43.6566C97.6762 46.1123 97.8525 48.4098 98.0095 50.4438C98.4105 55.6418 98.685 59.1191 98.685 59.1191C98.685 59.1191 98.7083 59.8624 98.7992 60.7799C98.8121 60.9109 98.8265 61.0455 98.8424 61.1821C98.8817 61.5193 98.931 61.8665 98.9907 62.2017C99.0361 62.457 99.0882 62.703 99.1473 62.9317C99.1655 63.0019 99.1848 63.0679 99.2045 63.1343C99.3087 63.4873 99.4313 63.7867 99.5799 63.9731C99.6352 64.0425 99.6938 64.097 99.7559 64.134C99.8179 64.1711 99.8835 64.191 99.9529 64.1911V68.4357C99.1734 68.911 98.4904 69.5265 97.9382 70.2491C97.9196 70.2732 97.9016 70.2977 97.8835 70.3222C97.7214 70.539 97.5716 70.7655 97.4339 70.9999C97.4191 71.0251 97.403 71.0494 97.3885 71.0747C97.24 71.3349 97.1054 71.6041 96.9892 71.8831C96.9884 71.8848 96.9879 71.8868 96.9872 71.8886C96.8805 72.1452 96.7928 72.4117 96.7155 72.6823C96.6938 72.7587 96.6753 72.8365 96.6559 72.9139C96.6037 73.1226 96.5615 73.3352 96.5276 73.5507C96.5146 73.6344 96.4995 73.7175 96.4892 73.8021C96.454 74.0922 96.4307 74.3861 96.4305 74.6859C96.4305 74.6866 96.4304 74.6875 96.4304 74.6883C96.4304 74.689 96.4305 74.6899 96.4305 74.6907C96.4305 74.9912 96.4541 75.286 96.4896 75.577C96.4999 75.6616 96.5149 75.7448 96.5279 75.8286C96.5621 76.0454 96.6047 76.2592 96.6575 76.4692C96.6767 76.546 96.6949 76.6231 96.7165 76.6989C96.879 77.2665 97.1052 77.8071 97.3926 78.3091C97.4092 78.3382 97.4276 78.3658 97.4446 78.3947C97.5819 78.6271 97.7311 78.8517 97.8924 79.0668C97.9107 79.0913 97.9288 79.1161 97.9474 79.1403C98.5035 79.8649 99.1905 80.4803 99.9752 80.9549C99.9749 80.9547 99.9755 80.955 99.9752 80.9549L101.379 88.3073H103.175C103.175 88.0796 103.174 87.8518 103.174 87.6241C103.174 86.1458 103.167 84.6674 103.178 83.1891C103.182 82.7377 103.124 82.3865 102.725 82.0491C102.676 82.0079 102.643 81.9604 102.603 81.9154C102.056 81.2974 102.345 80.3669 103.177 80.1158C103.659 79.9699 104.117 80.1511 104.443 80.6175C104.74 81.0417 104.733 81.3738 104.411 81.8198C104.368 81.8793 104.319 81.9377 104.267 81.9894C104.241 82.0139 104.217 82.0406 104.189 82.0585C103.878 82.251 103.825 82.4979 103.827 82.8693C103.839 84.6819 103.839 86.4947 103.834 88.3074H106.134L106.863 84.4915L107.537 80.9557C108.323 80.4806 109.011 79.8645 109.567 79.1391C109.585 79.1161 109.602 79.0925 109.619 79.0691C109.782 78.8524 109.933 78.626 110.071 78.3916C110.087 78.3645 110.104 78.3384 110.12 78.3111C110.408 77.8079 110.635 77.266 110.798 76.6969C110.819 76.623 110.836 76.5479 110.855 76.4731C110.909 76.2607 110.952 76.0443 110.986 75.8249C110.999 75.7432 111.014 75.6622 111.024 75.5796C111.059 75.2869 111.083 74.9909 111.083 74.6887C111.083 74.3874 111.059 74.092 111.024 73.8003C111.014 73.7177 110.999 73.6366 110.987 73.5549C110.952 73.3371 110.91 73.1223 110.857 72.9114C110.838 72.8355 110.82 72.7592 110.799 72.6843C110.637 72.1168 110.411 71.5763 110.125 71.0743C110.111 71.0496 110.095 71.0261 110.081 71.0015C109.943 70.7663 109.792 70.5392 109.63 70.3217C109.612 70.2977 109.594 70.2737 109.576 70.2499C109.023 69.5267 108.341 68.9115 107.561 68.4359V64.1914C107.743 64.1914 107.897 64.0455 108.031 63.8175C108.08 63.7346 108.126 63.641 108.169 63.5362C108.274 63.2798 108.363 62.9644 108.438 62.6209C108.764 61.1327 108.829 59.1197 108.829 59.1197C108.829 59.1197 109.273 53.4958 109.856 45.8609C109.878 45.5782 109.9 45.2925 109.921 45.0045C109.965 44.4282 110.01 43.8417 110.055 43.2465C110.101 42.6511 110.146 42.047 110.193 41.4355C110.25 40.6828 110.307 39.919 110.365 39.1468C110.598 36.0578 110.838 32.8343 111.07 29.6512C111.099 29.2531 111.128 28.8555 111.157 28.4588C110.757 28.4583 110.357 28.46 109.957 28.4601C108.479 28.4603 107 28.4675 105.522 28.456C105.071 28.4525 104.72 28.5099 104.382 28.9096C103.774 29.63 102.718 29.3499 102.449 28.4577C102.303 27.9748 102.484 27.5174 102.951 27.1912C103.375 26.8945 103.707 26.9012 104.153 27.2233C104.241 27.2868 104.336 27.3564 104.391 27.4457C104.584 27.7557 104.831 27.8096 105.202 27.8072C107.203 27.7944 109.204 27.796 111.204 27.8039C111.217 27.6274 111.23 27.4503 111.243 27.2742C111.362 25.6293 111.478 24.0085 111.588 22.4344C111.045 22.4336 110.501 22.4361 109.957 22.4361C108.479 22.4362 107 22.4435 105.522 22.432C105.071 22.4284 104.72 22.4859 104.382 22.8856C103.774 23.606 102.718 23.3259 102.449 22.4337C102.303 21.9508 102.484 21.4934 102.95 21.1672C103.375 20.8705 103.707 20.8772 104.153 21.1993C104.241 21.2628 104.336 21.3324 104.391 21.4216C104.584 21.7317 104.831 21.7856 105.202 21.7832C107.346 21.7695 109.49 21.7725 111.634 21.7825C111.748 20.1507 111.857 18.575 111.957 17.0842C110.93 17.0849 109.903 17.0872 108.877 17.1007C108.247 17.109 107.778 16.9493 107.338 16.4791C106.403 15.4789 105.407 14.5354 104.444 13.5613C104.109 13.2233 103.824 12.9547 103.242 13.0811C102.583 13.2243 102.105 12.7561 101.973 12.0587C101.857 11.4419 102.2 10.8845 102.803 10.7094C103.572 10.4857 104.5 11.1777 104.368 11.9725C104.281 12.4995 104.47 12.788 104.795 13.1076ZM104.411 57.146C104.348 57.234 104.278 57.3292 104.189 57.3847C103.878 57.5772 103.825 57.8242 103.827 58.1955C103.847 61.2517 103.838 64.3083 103.811 67.3645C103.81 67.5655 103.81 67.7666 103.808 67.9677C103.805 68.28 103.931 68.3849 104.128 68.5463C104.731 69.0403 104.814 69.5576 104.421 70.1164C104.012 70.696 103.251 70.7985 102.696 70.3489C102.221 69.965 102.163 69.0873 102.684 68.6791C103.121 68.3366 103.183 67.9513 103.179 67.4676C103.179 67.442 103.179 67.4165 103.179 67.3909C103.167 65.9109 103.174 64.4306 103.174 62.9504C103.174 61.4721 103.167 59.9936 103.178 58.5154C103.182 58.0641 103.124 57.7127 102.725 57.3755C102.004 56.7676 102.284 55.7114 103.177 55.442C103.66 55.2962 104.117 55.4774 104.443 55.9436C104.74 56.3678 104.733 56.7 104.411 57.146ZM99.7133 39.3438C99.4095 39.035 99.1348 38.8562 98.634 38.939C97.8787 39.064 97.2212 38.1824 97.4337 37.4514C97.6002 36.8786 98.13 36.553 98.7159 36.6633C99.3786 36.788 99.8235 37.2425 99.6874 37.8689C99.5673 38.4215 99.8226 38.6931 100.144 39.0108C101.069 39.9263 101.966 40.8722 102.916 41.761C103.363 42.1789 103.515 42.6248 103.507 43.2232C103.477 45.4663 103.493 47.71 103.494 49.9535C103.494 50.2521 103.423 50.5863 103.804 50.7031C104.514 51.3321 104.524 52.2883 103.842 52.6825C103.343 52.9709 102.637 52.8814 102.312 52.4888C101.93 52.0269 101.936 51.2057 102.45 50.8388C102.87 50.5385 102.889 50.205 102.887 49.7814C102.878 47.5934 102.872 45.4052 102.891 43.2173C102.895 42.7413 102.772 42.3793 102.42 42.0427C101.5 41.162 100.607 40.2521 99.7133 39.3438ZM107.758 74.5096C107.896 74.6538 107.982 74.8303 108.023 75.0155C108.06 75.1852 108.056 75.361 108.012 75.5294C107.966 75.7029 107.882 75.8677 107.751 76.0035C107.694 76.0621 107.63 76.1123 107.561 76.1561C107.111 76.4415 106.445 76.4069 106.151 75.9614C105.951 75.6587 105.729 75.5616 105.465 75.5304C105.346 75.5303 105.226 75.5305 105.106 75.5305C104.199 75.5308 103.293 75.5344 102.386 75.5316C101.949 75.5303 101.62 75.5728 101.327 76.0033C101.02 76.4545 100.404 76.4847 99.9527 76.1958C99.8742 76.1456 99.7992 76.0887 99.7332 76.0195C99.5954 75.8753 99.5092 75.6988 99.4685 75.5137C99.4312 75.344 99.4359 75.1681 99.4799 74.9996C99.5252 74.8261 99.6092 74.6613 99.7405 74.5255C99.8028 74.461 99.8755 74.4081 99.9526 74.3616C100.402 74.0904 101.051 74.1288 101.341 74.5676C101.54 74.8704 101.763 74.9674 102.026 74.9986C103.053 74.9998 104.079 74.9942 105.106 74.9974C105.542 74.9987 105.871 74.9562 106.165 74.5257C106.477 74.0673 107.107 74.0417 107.561 74.3453C107.631 74.3926 107.698 74.4466 107.758 74.5096ZM107.084 50.1909C107.081 50.5033 107.207 50.6081 107.404 50.7695C108.007 51.2635 108.091 51.7807 107.697 52.3395C107.289 52.9191 106.528 53.0216 105.972 52.572C105.498 52.1881 105.44 51.3104 105.961 50.9022C106.398 50.5597 106.46 50.1744 106.456 49.6907C106.443 48.1851 106.451 46.6793 106.451 45.1735C106.451 43.6952 106.443 42.2169 106.455 40.7385C106.458 40.2872 106.401 39.936 106.001 39.5987C105.281 38.9908 105.561 37.9346 106.453 37.6653C106.936 37.5194 107.393 37.7006 107.72 38.167C108.016 38.5911 108.01 38.9232 107.688 39.3692C107.624 39.4572 107.554 39.5524 107.465 39.6079C107.155 39.8004 107.101 40.0473 107.104 40.4187C107.124 43.676 107.116 46.9337 107.084 50.1909ZM102.004 5.64168C101.528 5.63773 101.166 5.76014 100.83 6.11201C99.9489 7.03249 99.0392 7.92533 98.1308 8.81882C97.822 9.12265 97.6432 9.3973 97.726 9.89813C97.851 10.6534 96.9694 11.311 96.2384 11.0984C95.6656 10.9319 95.3401 10.4021 95.4503 9.81619C95.575 9.15358 96.0295 8.70859 96.6559 8.84471C97.2085 8.96482 97.4801 8.70958 97.7978 8.38842C98.7133 7.46279 99.6592 6.56622 100.548 5.6158C100.966 5.16894 101.412 5.01724 102.01 5.02514C104.253 5.05476 106.497 5.03929 108.741 5.03863C109.039 5.03852 109.373 5.10894 109.49 4.72779C110.119 4.01856 111.075 4.00792 111.469 4.68983C111.758 5.18879 111.668 5.89516 111.276 6.22016C110.814 6.6023 109.993 6.59594 109.626 6.08262C109.325 5.66241 108.992 5.64344 108.568 5.64519C106.38 5.65441 104.192 5.65989 102.004 5.64168Z" fill="#FBBD17"/>
<path d="M100.525 74.7581C100.355 74.7654 100.202 74.8671 100.102 75.0003C100.031 75.0963 99.9828 75.2066 99.9937 75.3189C100 75.3839 100.027 75.4511 100.064 75.5147C100.169 75.6919 100.369 75.8342 100.525 75.7725C100.665 75.7173 100.782 75.6096 100.88 75.5149C100.928 75.4681 100.974 75.4237 101.013 75.3919C101.011 75.2289 100.967 75.103 100.907 75C100.816 74.8434 100.678 74.7516 100.525 74.7581Z" fill="#FBBD17"/>
<path d="M106.948 74.7529C106.809 74.8081 106.692 74.9158 106.594 75.0106C106.545 75.0573 106.5 75.1017 106.461 75.1335C106.463 75.2965 106.507 75.4224 106.567 75.5254C106.658 75.682 106.795 75.7739 106.949 75.7673C107.119 75.76 107.272 75.6584 107.371 75.5251C107.443 75.4291 107.491 75.3188 107.48 75.2066C107.473 75.1415 107.447 75.0743 107.409 75.0107C107.304 74.8335 107.105 74.6913 106.948 74.7529Z" fill="#FBBD17"/>
<path d="M6.85954 103.697H0.882812V129.513H6.85954V103.697Z" fill="#283B8B"/>
<path d="M3.82109 91.252C2.64575 91.252 1.71465 91.57 1.02862 92.2068C0.343384 92.8437 0 93.6854 0 94.7297C0 95.8403 0.334379 96.6976 1.00402 97.3017C1.67365 97.9066 2.61214 98.2082 3.82109 98.2082C4.99643 98.2082 5.92752 97.882 6.61356 97.2279C7.29879 96.5754 7.64217 95.7427 7.64217 94.7297C7.64217 93.6198 7.30692 92.7626 6.63816 92.1576C5.96852 91.5544 5.02923 91.252 3.82109 91.252Z" fill="#283B8B"/>
<path d="M32.2109 96.6411C30.6266 95.6944 28.8553 95.2207 26.8956 95.2207H12.6406V129.512H18.96V116.922H26.8956C28.8553 116.922 30.6266 116.432 32.2109 115.452C33.7944 114.472 35.0526 113.158 35.9829 111.509C36.914 109.86 37.3796 108.023 37.3796 105.998C37.3796 103.973 36.914 102.145 35.9829 100.511C35.0526 98.8787 33.7944 97.5886 32.2109 96.6411ZM30.3495 108.57C29.9406 109.337 29.4021 109.949 28.7332 110.407C28.0636 110.864 27.3038 111.093 26.4546 111.093H18.9599V101.099H26.4546C27.3038 101.099 28.0636 101.312 28.7332 101.736C29.4021 102.16 29.9406 102.748 30.3495 103.5C30.7577 104.251 30.9618 105.1 30.9618 106.046C30.9618 106.961 30.7577 107.803 30.3495 108.57Z" fill="#283B8B"/>
<path d="M58.2419 104.896C56.2166 103.737 53.9306 103.156 51.3832 103.156C48.803 103.156 46.5007 103.737 44.4762 104.896C42.4509 106.055 40.8591 107.647 39.7002 109.671C38.5404 111.697 37.9609 113.999 37.9609 116.578C37.9609 119.16 38.5404 121.462 39.7002 123.486C40.8591 125.512 42.4509 127.103 44.4762 128.262C46.5007 129.422 48.803 130.002 51.3832 130.002C53.9306 130.002 56.2166 129.422 58.2419 128.262C60.2664 127.103 61.8581 125.512 63.0178 123.486C64.1768 121.462 64.7571 119.16 64.7571 116.578C64.7571 113.999 64.1768 111.697 63.0178 109.671C61.8581 107.647 60.2664 106.055 58.2419 104.896ZM57.7764 120.718C57.1395 121.943 56.2658 122.907 55.1552 123.608C54.0446 124.311 52.7873 124.662 51.3833 124.662C49.9792 124.662 48.7137 124.311 47.5867 123.608C46.4606 122.907 45.586 121.943 44.9664 120.718C44.3459 119.494 44.0353 118.114 44.0353 116.578C44.0353 115.044 44.3459 113.664 44.9664 112.439C45.586 111.215 46.4606 110.252 47.5867 109.549C48.7137 108.847 49.9792 108.496 51.3833 108.496C52.7873 108.496 54.0446 108.839 55.1552 109.525C56.2658 110.211 57.1395 111.166 57.7764 112.39C58.4132 113.615 58.7148 115.011 58.6828 116.578C58.7148 118.114 58.4132 119.494 57.7764 120.718Z" fill="#283B8B"/>
<path d="M85.3864 119.173C85.3864 119.99 85.2388 120.757 84.9454 121.475C84.6511 122.194 84.2421 122.806 83.72 123.312C83.1979 123.819 82.5857 124.211 81.8832 124.488C81.1808 124.766 80.4054 124.905 79.5563 124.905C77.8252 124.905 76.4777 124.317 75.5147 123.141C74.5516 121.965 74.0697 120.366 74.0697 118.34V103.693H68.0938V119.614C68.0938 121.77 68.4609 123.615 69.1954 125.15C69.9306 126.685 70.9756 127.877 72.3313 128.726C73.6862 129.574 75.2943 129.999 77.1565 129.999C78.5933 129.999 79.9481 129.713 81.2218 129.142C82.4955 128.571 83.5979 127.795 84.529 126.815C84.8835 126.442 85.1863 126.047 85.4626 125.64L85.5331 129.509H91.3623V103.693H85.3864V119.173Z" fill="#283B8B"/>
<path d="M110.224 103.154C108.983 103.154 107.783 103.457 106.624 104.061C105.464 104.666 104.444 105.489 103.562 106.534C103.123 107.055 102.75 107.608 102.44 108.193L102.386 103.694H96.5078V129.509H102.534V115.695C102.534 114.814 102.697 114.005 103.023 113.27C103.349 112.536 103.783 111.891 104.321 111.335C104.861 110.78 105.497 110.348 106.232 110.038C106.967 109.727 107.758 109.572 108.608 109.572C109.13 109.572 109.644 109.629 110.151 109.743C110.657 109.858 111.106 110.013 111.498 110.209L113.066 103.644C112.739 103.514 112.322 103.399 111.817 103.302C111.309 103.203 110.779 103.154 110.224 103.154Z" fill="#283B8B"/>
<path d="M115.219 100.854H120.803V123.878H115.219V129.512H132.756V123.878H127.122V100.854H132.756V95.2207H115.219V100.854Z" fill="#283B8B"/>
<path d="M152.346 103.699H146.711V97.1348H140.735V103.699H135.641V109.283H140.735V129.515H146.711V109.283H152.346V103.699Z" fill="#283B8B"/>
</svg>
